<svg width="252" height="39" viewBox="0 0 252 39" fill="none" xmlns="http://www.w3.org/2000/svg">
<g id="BERLIN">
<path d="M0 39V0H30.5196C40.3246 0 43.639 3.82661 43.639 9.06855V9.33064C43.639 14.8347 39.3579 16.9315 36.7801 17.3508C40.2786 17.9274 45.6184 20.0242 45.6184 26.9436V27.4153C45.6184 34.3347 41.7516 39 30.5196 39H0ZM25.8703 9.69758H14.04V14.5726H25.8703C28.4021 14.5726 29.1847 13.6815 29.1847 12.2137V12.1089C29.1847 10.4839 28.4021 9.69758 25.8703 9.69758ZM26.9291 23.4839H14.04V28.8831H26.9291C30.1054 28.8831 30.5657 27.3629 30.5657 26.1573V26C30.5657 24.7419 30.1054 23.4839 26.9291 23.4839Z" fill="black"/>
<path d="M51.0225 0H86.8359V9.95968H65.1085V14.1532H86.1454V24.375H65.1085V28.9355H87.1581V39H51.0225V0Z" fill="black"/>
<path d="M107.724 10.746V16.4597H120.106C123.006 16.4597 123.559 14.9919 123.559 13.5242V13.4718C123.559 12.1089 123.006 10.746 120.106 10.746H107.724ZM130.188 20.2339C134.469 20.8105 138.427 22.8548 138.427 29.0403V36.2218C138.427 37.7419 138.611 38.2661 138.934 38.7379V39H124.479C124.341 38.7903 124.203 38.1613 124.203 36.746V33.4436C124.203 28.4113 122.684 27.4153 117.759 27.4153H107.724V39H93.6836V0H123.881C136.218 0 138.105 5.24193 138.105 10.7984V11.0605C138.105 16.9839 133.87 19.3952 130.188 20.2339Z" fill="black"/>
<path d="M144.796 0H158.836V26.8387H179.09V39H144.796V0Z" fill="black"/>
<path d="M199.07 0V39H185.03V0H199.07Z" fill="black"/>
<path d="M238.604 39L220.145 18.0323V39H206.428V0H220.698L238.282 19.9718V0H252V39H238.604Z" fill="black"/>
</g>
</svg>
