<svg width="252" height="149" viewBox="0 0 252 149" fill="none" xmlns="http://www.w3.org/2000/svg">
<g id="FEEL THE RAVE&#194;&#160;">
<path d="M0.199219 148.8V0H17.3992V10H10.7992V64.6H16.9992V75H10.7992V148.8H0.199219Z" fill="black"/>
<path d="M19.3398 0H36.5398V10H29.9398V64.6H36.1398V75H29.9398V138.6H36.7398V148.8H19.3398V0Z" fill="black"/>
<path d="M38.6758 0H55.8758V10H49.2758V64.6H55.4758V75H49.2758V138.6H56.0758V148.8H38.6758V0Z" fill="black"/>
<path d="M58.0117 0H68.6117V138.6H75.0117V148.8H58.0117V0Z" fill="black"/>
<path d="M89.3648 148.8V10H84.5648V0H104.565V10H99.7648V148.8H89.3648Z" fill="black"/>
<path d="M106.645 148.8V0H117.245V65H119.445V0H130.045V148.8H119.445V76.4H117.245V148.8H106.645Z" fill="black"/>
<path d="M132.426 0H149.626V10H143.026V64.6H149.226V75H143.026V138.6H149.826V148.8H132.426V0Z" fill="black"/>
<path d="M170.37 76V148.8H159.77V0H176.37C180.57 0 182.97 3 182.97 7.79999V63C182.97 67.6 180.77 69 179.17 69.6C180.77 70.2 183.17 72.2 183.17 76V146C183.17 147 183.37 147.8 183.57 148.6V148.8H173.17C172.77 148.4 172.57 147.6 172.57 146.2V77.4C172.57 76.4 172.17 76 171.17 76H170.37ZM170.37 9.2V65.8H171.17C172.17 65.8 172.57 65.2 172.57 64.2V10.8C172.57 9.79999 172.17 9.2 171.37 9.2H170.37Z" fill="black"/>
<path d="M197.351 103.6L196.151 27.2L194.551 103.6H197.351ZM198.151 148.8L197.551 113.6H194.351L193.551 148.8H184.551L189.551 0H203.551L208.551 148.8H198.151Z" fill="black"/>
<path d="M212.426 148.8L206.626 0H218.026L220.026 123.8L222.026 0H232.426L226.826 148.8H212.426Z" fill="black"/>
<path d="M233.988 0H251.188V10H244.588V64.6H250.788V75H244.588V138.6H251.388V148.8H233.988V0Z" fill="black"/>
</g>
</svg>
